# xmcd CD database file
#
# Track frame offsets:
#	150
#	34647
#	57495
#	73170
#	100622
#	131565
#	149180
#	164695
#	182855
#	220567
#	231242
#	246917
#	277947
#	286352
#	299830
#
# Disc length: 4152 seconds
#
# Revision: 0
# Processed by: cddbd v1.5.1PL0 Copyright (c) Steve Scherf et al.
# Submitted via: CDex 1.51
#
DISCID=f810360f
DTITLE=ELIZETH CARDOSO - EPOCA DE OURO  CD-2
DYEAR=1968
DGENRE=Jazz
TTITLE0=Barracao
TTITLE1=Feito De Oracao
TTITLE2=Feitico Da Vila
TTITLE3=Selecao do Rosa De Ouro
TTITLE4=Chao De Estrelas
TTITLE5=Lamento
TTITLE6=Meiga Presenca
TTITLE7=Tempo Feliz
TTITLE8=Chega De Saudade
TTITLE9=Cancao Do Amor Demais
TTITLE10=Cancao De Amor
TTITLE11=Carolina
TTITLE12=Ate Amanha
TTITLE13=Carinhoso
TTITLE14=Esta Chegando A Hora
EXTD=YEAR: 1968
EXTT0=
EXTT1=
EXTT2=
EXTT3=
EXTT4=
EXTT5=
EXTT6=
EXTT7=
EXTT8=
EXTT9=
EXTT10=
EXTT11=
EXTT12=
EXTT13=
EXTT14=
PLAYORDER=
